<svg version="1.2" xmlns="http://www.w3.org/2000/svg" viewBox="0 0 591 585" width="200" height="198">
	<style>
		.s0 { fill: #00f0ff } 
	</style>
	<g>
		<path class="s0" d="m267 1c-19.4 2-39.4 6-57.1 11.4-60.8 18.4-112.9 54.8-152.5 106.6-46.5 60.7-65.3 138.5-53.3 221.3 13.4 92.9 76.7 176 164.9 216.8 15.7 7.2 43.6 16.6 60 20.3 49.8 10.9 104.9 8.8 153.8-6 43.4-13.2 88.5-39.6 120.2-70.6 33.5-32.7 58.1-71.8 72.3-115 11.9-36 17.4-79.3 14.8-115.8-2.5-34-9.9-63.4-24.5-96.5-33.9-76.9-104.7-137.7-188.6-161.9-27.4-7.9-46.3-10.6-77.5-11.1-13.2-0.2-27.8 0-32.5 0.5zm0 60c1.1 1.1 2 2.9 2 4 0 2.3-3.3 6-5.5 6-2.2 0-5.5-3.7-5.5-6 0-2.3 3.3-6 5.5-6 0.8 0 2.4 0.9 3.5 2zm73.9 14c2.9 9.3 8.2 15 16.4 17.6 3.1 1 5.7 2.1 5.7 2.5 0 0.4-2.4 1.5-5.2 2.4-2.9 1-6.8 2.9-8.7 4.3-3.6 2.7-7.7 10.5-8.7 16.4-0.4 2.1-1 3.8-1.4 3.8-0.4 0-1.1-1.7-1.5-3.8-1.8-9.8-8.7-18.2-16.7-20.2-2.4-0.6-5.2-1.5-6.3-1.9l-2-0.9 2-0.7c14.5-5.1 19.1-9.2 22-19.8 1-3.7 1.9-6.7 2.1-6.7 0.1 0 1.2 3.2 2.3 7zm-134 6.4c3.7 15.1 11.9 23.3 27.4 27.2 3.8 0.9 6.5 2 6 2.4-0.4 0.4-3 1.3-5.8 1.9-6.5 1.6-15.4 5.6-18.3 8.4-3.2 3-6.8 10.2-8.8 17.9-2.1 7.7-3.1 9-3.9 5.2-1.9-8.8-4.8-16.4-7.5-20.1-3.6-4.9-12.2-9.5-21.2-11.4-6.3-1.3-7.3-2.5-3-3.5 17.9-3.9 25.4-10.4 29.7-25.9 2.4-8.7 2.5-8.9 3.4-7.9 0.5 0.5 1.4 3.1 2 5.8zm243.3 30.1c20.5 4.3 46.6 24.4 61.4 47 15.5 23.8 23.6 47.8 23.7 70 0.1 21.4-6.9 36-20.8 43.3-4.6 2.5-5.9 2.7-17.5 2.7-11.7 0-13-0.2-20.2-3.1-22.8-9.3-44.5-31-58-57.9-10.5-20.9-15.1-38.2-15.2-57 0-16.8 3.8-28.7 11.8-36.7 8.7-8.7 20.2-11.4 34.8-8.3zm-320.8 12c0.8 4.3 6.1 9.8 10.6 11.1 4.5 1.3 4.7 2.7 0.5 4.3-5.9 2.1-9.3 5.8-11.1 11.7-0.8 3-1.7 5.4-1.9 5.4-0.2 0-1.1-2.4-1.9-5.3-2-6.7-6.1-10.6-13.5-12.7l-2.6-0.7 3.4-1.9c7.9-4.5 9.7-6.1 12.1-11.1 1.3-2.8 2.7-5 3.1-4.7 0.4 0.2 1 2 1.3 3.9zm165.7 23.6c4.7 2.5 4.3 10.3-0.6 11.5-1.9 0.5-3.2 0.1-5.1-1.7-3.1-2.9-3.1-5.3 0.1-8.4 2.8-2.8 2.9-2.9 5.6-1.4zm80.8 47c0.6 2.8 1 5.3 0.9 5.3-0.7 0.4-19.1 11.6-51.3 31.4-19.2 11.9-45.2 27.8-57.7 35.5-20.7 12.6-22.7 14.1-21.7 15.8 0.6 1.1 1.6 2.2 2.3 2.5 1.2 0.4 129.1-63.2 132.2-65.7 0.8-0.7 2.2 1.3 4.6 6.3 1.9 4 5.6 10.8 8.1 15.1 4.8 8 5.4 9.7 3.8 9.7-0.6 0-6.3 2.9-12.8 6.3-6.5 3.5-22.6 11.9-35.8 18.7-13.2 6.7-32.5 16.6-43 22-10.4 5.4-30.7 15.7-45 23-14.3 7.3-26.4 13.7-27 14.1-1.3 1.3 8.6 11.2 16 16.1 3.2 2.1 9.1 4.8 12.9 6 6.4 1.9 6.8 2.2 4.5 3.1-1.3 0.5-5.3 1-8.9 1-21.6 0-43.5-21.4-53.5-52.3-3.7-11.5-4.5-27.7-1.8-36.5 1.9-6 1.9-6 11.3-11.8 5.2-3.2 19.9-11.8 32.5-19.1 12.7-7.3 45.1-26 72-41.5 27-15.6 50.4-29.1 52-30l3-1.7 0.6 10.7c0.4 5.9 1.2 13.1 1.8 16zm-276.7-10.4c2.7 2.4 2.3 6.9-0.8 9-3 1.9-5 1.1-7.3-2.9-1.3-2.3-1.3-2.9 0.2-5.2 2-3 5.2-3.4 7.9-0.9zm102.4 13.9c2 2.9 1.1 6.9-1.9 8.8-2.6 1.7-7.1-1.2-7.5-4.8-0.7-6 6.2-8.9 9.4-4zm-50.2 34.6c2.1 3 2 5.4-0.4 7.8-3.7 3.7-9 1.5-9-3.7 0-5.7 6.4-8.4 9.4-4.1zm-63.4 20c0.1 3.1 3.3 9.9 5.7 12 1.1 1 3.7 2.4 5.9 3.1 4.7 1.7 5 3.7 0.9 5-6.8 2.2-12.5 8.6-12.5 14.1 0 3.6-1.8 4.2-2.6 0.9-1.8-7.6-7.3-13.2-15.6-15.7-3-0.9-2-2.1 4.2-4.9 6.1-2.9 9.9-7.4 11.5-14 0.9-3.3 2.5-3.6 2.5-0.5zm91.6 43c0 10.5 0.5 14.9 2.2 21.1 6.2 22 21.1 42.7 38.3 53.4l6.2 3.8-8.4 3.9c-10.6 5-15.4 5.1-24.2 0.8-26.9-13.4-43.9-53.8-33.5-79.8 2.4-6 4-7.6 14.8-13.7 2.5-1.4 4.5-2.6 4.5-2.6 0-0.1 0.1 5.9 0.1 13.1zm338.4 19.8c1.7 3.2 0.8 7.3-1.9 8.6-5.3 2.7-10-3-6.7-8 2.1-3.3 7-3.6 8.6-0.6zm-51.1 10.7c1.6 5.8 5.2 9.7 11.8 12.8 3 1.5 5.1 3 4.7 3.4-0.5 0.4-3.1 1.6-5.7 2.5-5.7 2.1-10.4 7.8-11.3 13.8-0.8 5-2.1 4.8-3.5-0.5-1.9-7.3-7.6-12.6-16.1-15.1-3-0.9-2-2.2 2.6-4 5.1-2 12.2-9.2 13.1-13.3 1.5-6.8 2.3-6.7 4.4 0.4zm-326.5 15c1.8 8.9 5.2 16.2 12.1 25.8l5.4 7.4-5.2 2.9c-2.9 1.6-9.2 5.1-14.2 7.7-4.9 2.6-9.2 5-9.4 5.2-0.3 0.1 0.6 1.5 2 2.9l2.4 2.6-4.4-2.2c-14.8-7.4-26-31.7-20-43.1 1.3-2.4 29.1-18.3 29.6-16.9 0.1 0.3 0.9 3.7 1.7 7.7zm208.6 5.4c11.6 6.4 16.2 21 10.4 32.7-8.1 16.3-29.4 18.9-41.8 5.2-4.8-5.3-6.6-9.6-6.6-15.8 0-7.7 2.5-13.6 8-18.5 6.1-5.5 9.7-6.7 18.6-6.3 5.2 0.2 8.2 0.9 11.4 2.7zm-259 10.9c-2.1 14.5 3.3 29.5 14.7 41 3.8 3.7 8.8 7.7 11.3 9l4.4 2.3-8.4 4c-10.1 4.8-14.3 5.1-21.6 1.4-17.1-8.7-28-37.6-19.1-50.8 1.7-2.5 18.5-14.2 19.4-13.5 0.1 0.1-0.2 3.1-0.7 6.6zm312.1 35c40.1 1.9 80.9 8.1 113.2 17.2 8.5 2.4 14.7 4.6 14.7 5.3 0 2-12.2 21.6-19.1 30.7-19.8 26.2-41.6 47.4-67.2 65.2-9.1 6.3-11.7 7.6-11.7 5.7 0-0.5-4-8.4-8.8-17.7-13.4-25.4-38.4-75-46.3-91.4l-6.9-14.5 2.8-0.6c4-1 7.8-1 29.3 0.1zm-110.5 6.6c-0.3 0.9-3.2 5.2-6.5 9.7-6.2 8.7-17 24-34 48.3-5.8 8.2-13.9 19.6-18.1 25.4-4.1 5.8-14.5 20.3-22.9 32.2-8.5 12-15.9 21.8-16.5 21.8-2.2-0.1-26.3-12.7-36.4-19-16.1-10.1-33.5-23.7-46.9-36.5-6.8-6.4-12.3-12-12.3-12.3 0-0.4 4.2-3.2 9.3-6.3 47.5-29 99.3-48.4 163.7-61.4 19.4-3.9 21.5-4.1 20.6-1.9zm35.9 7.4c1.2 0 1.4 12 1.2 73.2l-0.2 73.2-4 1c-2.2 0.5-15.2 0.9-29 0.9-20.5 0.1-27.8-0.3-40.5-2.1-18.4-2.6-31.5-5.4-31.4-6.6 0-0.5 4.6-7.2 10.2-15 22.3-31.1 61.7-86.5 65.5-92.1 12-17.7 24.2-33.5 25.5-33 0.7 0.3 2 0.5 2.7 0.5zm50.7 69c5.5 10.7 14.3 27.8 19.5 37.9 5.2 10.1 9.1 18.6 8.6 19.1-2.1 1.8-44.2 16-47.6 16-0.4 0-0.7-25.1-0.7-55.8v-55.7l5.1 9.5c2.8 5.2 9.6 18.3 15.1 29z"/>
		<path class="s0" d="m442 137.2c-7.4 2.1-12.6 8.1-14.8 17-4.4 17.6 5 45.9 22.8 68.2 10.3 12.9 21.1 20.7 33.9 24.2 8.5 2.4 15.6 0.8 21.7-4.8 6.1-5.6 7.9-11 7.9-23.3 0-12.1-2.7-23-8.6-34.9-8.9-17.8-18-28.9-31-37.5-12.9-8.7-23-11.5-31.9-8.9z"/>
		<path class="s0" d="m331.4 358c-3.4 1.3-5.4 5-5.4 9.8 0 3.7 0.6 5 3.5 7.9 3.2 3.2 3.9 3.5 7.8 3 5-0.7 10.7-6.1 10.7-10.2 0-8.1-8.8-13.7-16.6-10.5z"/>
	</g>
</svg>